<svg width="156" height="156" viewBox="0 0 156 156" fill="none" xmlns="http://www.w3.org/2000/svg">
<path d="M77.6687 94.5075C99.9714 94.5075 119.015 98.0433 119.015 112.192C119.015 126.335 100.094 130 77.6687 130C55.366 130 36.3226 126.464 36.3226 112.321C36.3226 98.1721 55.2438 94.5075 77.6687 94.5075ZM113.328 85.9877C121.854 85.8297 131.021 87.0004 134.408 87.8317C141.585 89.2425 146.305 92.1226 148.26 96.3082C149.913 99.7445 149.913 103.731 148.26 107.161C145.269 113.653 135.625 115.737 131.877 116.276C131.103 116.393 130.48 115.72 130.561 114.941C132.476 96.9521 117.245 88.4229 113.305 86.4619C113.136 86.3741 113.101 86.2394 113.118 86.1575C113.13 86.0989 113.2 86.0053 113.328 85.9877ZM42.6764 85.9901C42.8044 86.0076 42.8685 86.1013 42.8801 86.154C42.8976 86.2418 42.8626 86.3706 42.6997 86.4642C38.7536 88.4253 23.5224 96.9545 25.4372 114.938C25.5187 115.722 24.9018 116.39 24.1277 116.278C20.3795 115.74 10.7356 113.656 7.74405 107.164C6.08532 103.727 6.08532 99.7468 7.74405 96.3106C9.69961 92.125 14.4139 89.2448 21.5901 87.8282C24.9832 87.0028 34.1441 85.832 42.6764 85.9901ZM77.6687 26C92.8534 26 105.029 38.2347 105.029 53.5135C105.029 68.7865 92.8534 81.0329 77.6687 81.0329C62.484 81.0329 50.3083 68.7865 50.3083 53.5135C50.3083 38.2347 62.484 26 77.6687 26ZM114.812 30.5883C129.479 30.5883 140.997 44.468 137.074 59.9283C134.426 70.3366 124.84 77.2501 114.16 76.9691C113.089 76.9398 112.036 76.8403 111.017 76.6647C110.278 76.5359 109.906 75.6988 110.325 75.0783C114.399 69.0487 116.721 61.7957 116.721 54.01C116.721 45.8847 114.184 38.3097 109.778 32.0986C109.638 31.9055 109.533 31.6069 109.673 31.3845C109.789 31.203 110.005 31.1093 110.208 31.0625C111.693 30.7581 113.217 30.5883 114.812 30.5883ZM41.1835 30.5877C42.7782 30.5877 44.3031 30.7575 45.7931 31.0619C45.991 31.1087 46.2121 31.2083 46.3285 31.3839C46.4624 31.6063 46.3634 31.9049 46.2238 32.0981C41.8179 38.3091 39.2804 45.8841 39.2804 54.0094C39.2804 61.7951 41.6026 69.0481 45.6767 75.0777C46.0957 75.6982 45.7232 76.5353 44.9841 76.6641C43.9597 76.8456 42.9121 76.9393 41.8412 76.9685C31.1613 77.2495 21.5756 70.336 18.9274 59.9277C14.9988 44.4674 26.5168 30.5877 41.1835 30.5877Z" fill="white"/>
</svg>
