<svg width="20" height="19" viewBox="0 0 20 19" fill="none" xmlns="http://www.w3.org/2000/svg">
<path d="M10 5H11.5M10 8H11.5M4 11H11.5M4 14H11.5M14.5 5H17.875C18.496 5 19 5.504 19 6.125V15.5C19 16.0967 18.7629 16.669 18.341 17.091C17.919 17.5129 17.3467 17.75 16.75 17.75M14.5 5V15.5C14.5 16.0967 14.7371 16.669 15.159 17.091C15.581 17.5129 16.1533 17.75 16.75 17.75M14.5 5V2.375C14.5 1.754 13.996 1.25 13.375 1.25H2.125C1.504 1.25 1 1.754 1 2.375V15.5C1 16.0967 1.23705 16.669 1.65901 17.091C2.08097 17.5129 2.65326 17.75 3.25 17.75H16.75M4 5H7V8H4V5Z" stroke="white" stroke-width="1.5" stroke-linecap="round" stroke-linejoin="round"/>
</svg>
