<svg width="18" height="22" viewBox="0 0 18 22" fill="none" xmlns="http://www.w3.org/2000/svg">
<path d="M12.666 2.888C12.5327 2.4163 12.2489 2.00105 11.858 1.70538C11.467 1.40972 10.9902 1.24982 10.5 1.25H7.5C6.47 1.25 5.6 1.943 5.334 2.888M12.666 2.888C12.721 3.082 12.75 3.288 12.75 3.5C12.75 3.69891 12.671 3.88968 12.5303 4.03033C12.3897 4.17098 12.1989 4.25 12 4.25H6C5.80109 4.25 5.61032 4.17098 5.46967 4.03033C5.32902 3.88968 5.25 3.69891 5.25 3.5C5.25 3.288 5.28 3.082 5.334 2.888M12.666 2.888C13.312 2.937 13.954 2.998 14.593 3.072C15.693 3.2 16.5 4.149 16.5 5.257V18.5C16.5 19.0967 16.2629 19.669 15.841 20.091C15.419 20.5129 14.8467 20.75 14.25 20.75H3.75C3.15326 20.75 2.58097 20.5129 2.15901 20.091C1.73705 19.669 1.5 19.0967 1.5 18.5V5.257C1.5 4.149 2.306 3.2 3.407 3.072C4.04804 2.99778 4.6905 2.93643 5.334 2.888" stroke="white" stroke-width="1.5" stroke-linecap="round" stroke-linejoin="round"/>
</svg>

