<svg width="24" height="24" viewBox="0 0 24 24" fill="none" xmlns="http://www.w3.org/2000/svg">
<path d="M10.5 5.5C9.01664 5.5 7.5666 5.93987 6.33323 6.76398C5.09986 7.58809 4.13856 8.75943 3.57091 10.1299C3.00325 11.5003 2.85472 13.0083 3.14411 14.4632C3.4335 15.918 4.14781 17.2544 5.1967 18.3033C6.2456 19.3522 7.58197 20.0665 9.03683 20.3559C10.4917 20.6453 11.9997 20.4968 13.3701 19.9291C14.7406 19.3614 15.9119 18.4001 16.736 17.1668C17.5601 15.9334 18 14.4834 18 13H10.5V5.5Z" stroke="white" stroke-width="1.5" stroke-linecap="round" stroke-linejoin="round"/>
<path d="M13.5 10H21C21 8.01088 20.2098 6.10322 18.8033 4.6967C17.3968 3.29018 15.4891 2.5 13.5 2.5V10Z" stroke="white" stroke-width="1.5" stroke-linecap="round" stroke-linejoin="round"/>
</svg>