<svg width="22" height="21" viewBox="0 0 22 21" fill="none" xmlns="http://www.w3.org/2000/svg">
<path d="M19.25 7.011C20.134 7.295 20.75 8.139 20.75 9.108V13.394C20.75 14.53 19.903 15.494 18.77 15.587C18.43 15.614 18.09 15.639 17.75 15.659V18.75L14.75 15.75C13.396 15.75 12.056 15.695 10.73 15.587C10.4413 15.5637 10.1605 15.4813 9.905 15.345M19.25 7.011C19.0955 6.96127 18.9358 6.92939 18.774 6.916C16.0959 6.69368 13.4041 6.69368 10.726 6.916C9.595 7.01 8.75 7.973 8.75 9.108V13.394C8.75 14.231 9.21 14.974 9.905 15.345M19.25 7.011V5.137C19.25 3.516 18.098 2.111 16.49 1.902C14.4208 1.63379 12.3365 1.49951 10.25 1.5C8.135 1.5 6.052 1.637 4.01 1.902C2.402 2.111 1.25 3.516 1.25 5.137V11.363C1.25 12.984 2.402 14.389 4.01 14.598C4.587 14.673 5.167 14.738 5.75 14.792V19.5L9.905 15.345" stroke="white" stroke-width="1.5" stroke-linecap="round" stroke-linejoin="round"/>
</svg>
