<svg width="49" height="49" viewBox="0 0 49 49" fill="none" xmlns="http://www.w3.org/2000/svg">
<path d="M33.0277 4.63202C39.8063 4.63202 44.3601 9.38824 44.3601 16.4655V32.7986C44.3601 39.8758 39.8063 44.632 33.0257 44.632H15.6925C8.9139 44.632 4.36011 39.8758 4.36011 32.7986V16.4655C4.36011 9.38824 8.9139 4.63202 15.6925 4.63202H33.0277ZM35.2333 25.7321C33.0894 24.3947 31.4342 26.2729 30.9877 26.8735C30.5574 27.4535 30.1873 28.0933 29.7971 28.7332C28.8439 30.3121 27.7518 32.1325 25.8613 33.1914C23.1141 34.7125 21.0285 33.3111 19.5282 32.2915C18.9651 31.9117 18.418 31.5526 17.873 31.3131C16.5296 30.7332 15.3209 31.3936 13.5269 33.6723C12.5857 34.8632 11.6525 36.0438 10.7073 37.2203C10.1421 37.9241 10.2769 39.0097 11.0391 39.4803C12.2559 40.2295 13.7401 40.632 15.4174 40.632H32.2729C33.2241 40.632 34.1774 40.502 35.0865 40.2048C37.1338 39.536 38.7588 38.0046 39.6076 35.9819C40.3235 34.2811 40.6714 32.2172 40.0017 30.4999C39.7785 29.9303 39.4446 29.3998 38.976 28.9334C37.7472 27.7135 36.5989 26.5742 35.2333 25.7321ZM17.3578 12.632C14.6005 12.632 12.3601 14.8755 12.3601 17.632C12.3601 20.3886 14.6005 22.632 17.3578 22.632C20.1131 22.632 22.3555 20.3886 22.3555 17.632C22.3555 14.8755 20.1131 12.632 17.3578 12.632Z" fill="gray"/>
</svg>
