<svg width="40" height="40" viewBox="0 0 40 40" fill="none" xmlns="http://www.w3.org/2000/svg">
<path d="M29.3678 29.4238C30.012 28.784 31.0447 28.784 31.6889 29.4238L35.9467 32.8607H36.0206C36.882 33.7314 36.882 35.143 36.0206 36.0137C35.1592 36.8844 33.7626 36.8844 32.9012 36.0137L29.3678 31.9642L29.2338 31.8129C28.984 31.4967 28.846 31.1026 28.846 30.694C28.846 30.2173 29.0338 29.7603 29.3678 29.4238ZM17.6294 3.33337C21.4209 3.33337 25.0572 4.85577 27.7382 7.56565C30.4193 10.2755 31.9255 13.9509 31.9255 17.7833C31.9255 25.7637 25.5249 32.2331 17.6294 32.2331C9.7339 32.2331 3.33333 25.7637 3.33333 17.7833C3.33333 9.8028 9.7339 3.33337 17.6294 3.33337Z" fill="black"/>
</svg>
