<svg width="201" height="76" viewBox="0 0 201 76" fill="none" xmlns="http://www.w3.org/2000/svg">
<path d="M2.89631 49V27.1818H17.598V30.9851H7.50923V36.1839H16.8416V39.9872H7.50923V45.1967H17.6406V49H2.89631ZM33.1014 33.4567C33.0162 32.5973 32.6504 31.9297 32.0041 31.4538C31.3578 30.978 30.4806 30.7401 29.3727 30.7401C28.6199 30.7401 27.9842 30.8466 27.4657 31.0597C26.9473 31.2656 26.5495 31.5533 26.2725 31.9226C26.0027 32.2919 25.8677 32.7109 25.8677 33.1797C25.8535 33.5703 25.9352 33.9112 26.1127 34.2024C26.2974 34.4936 26.5495 34.7457 26.8691 34.9588C27.1887 35.1648 27.5581 35.3459 27.9771 35.5021C28.3961 35.6513 28.8436 35.7791 29.3194 35.8857L31.2797 36.3544C32.2314 36.5675 33.1049 36.8516 33.9004 37.2067C34.6958 37.5618 35.3848 37.9986 35.9672 38.517C36.5495 39.0355 37.0005 39.6463 37.3201 40.3494C37.6468 41.0526 37.8137 41.8587 37.8208 42.7678C37.8137 44.103 37.4728 45.2607 36.7981 46.2408C36.1305 47.2138 35.1646 47.9702 33.9004 48.5099C32.6433 49.0426 31.127 49.3089 29.3514 49.3089C27.59 49.3089 26.0559 49.0391 24.7491 48.4993C23.4494 47.9595 22.4338 47.1605 21.7022 46.1023C20.9778 45.0369 20.5978 43.7195 20.5623 42.1499H25.0261C25.0758 42.8814 25.2853 43.4922 25.6547 43.9822C26.0311 44.4652 26.5318 44.831 27.1568 45.0795C27.7889 45.321 28.5027 45.4418 29.2981 45.4418C30.0794 45.4418 30.7576 45.3281 31.3329 45.1009C31.9153 44.8736 32.3663 44.5575 32.6859 44.1527C33.0055 43.7479 33.1653 43.2827 33.1653 42.7571C33.1653 42.267 33.0197 41.8551 32.7285 41.5213C32.4444 41.1875 32.0254 40.9034 31.4714 40.669C30.9245 40.4347 30.2534 40.2216 29.4579 40.0298L27.0822 39.4332C25.2427 38.9858 23.7903 38.2862 22.725 37.3345C21.6596 36.3828 21.1305 35.1009 21.1376 33.4886C21.1305 32.1676 21.4821 31.0135 22.1923 30.0263C22.9096 29.0391 23.8933 28.2685 25.1433 27.7145C26.3933 27.1605 27.8137 26.8835 29.4047 26.8835C31.024 26.8835 32.4373 27.1605 33.6447 27.7145C34.8592 28.2685 35.8038 29.0391 36.4785 30.0263C37.1532 31.0135 37.5012 32.157 37.5225 33.4567H33.1014ZM45.5366 27.1818V49H40.9237V27.1818H45.5366ZM49.3319 49V27.1818H64.0336V30.9851H53.9448V36.1839H63.2772V39.9872H53.9448V45.1967H64.0762V49H49.3319ZM67.701 49V27.1818H82.4027V30.9851H72.3139V36.1839H81.6463V39.9872H72.3139V45.1967H82.4453V49H67.701Z" fill="white"/>
<rect x="95" width="105" height="76" rx="20" fill="white"/>
<path d="M116.896 49V27.1818H121.509V36.1839H130.874V27.1818H135.476V49H130.874V39.9872H121.509V49H116.896ZM152.756 27.1818H157.369V41.3509C157.369 42.9418 156.989 44.3338 156.229 45.527C155.476 46.7202 154.421 47.6506 153.065 48.3182C151.708 48.9787 150.128 49.3089 148.324 49.3089C146.513 49.3089 144.929 48.9787 143.572 48.3182C142.216 47.6506 141.161 46.7202 140.408 45.527C139.656 44.3338 139.279 42.9418 139.279 41.3509V27.1818H143.892V40.9567C143.892 41.7876 144.073 42.5263 144.435 43.1726C144.805 43.8189 145.323 44.3267 145.991 44.696C146.658 45.0653 147.436 45.25 148.324 45.25C149.219 45.25 149.996 45.0653 150.657 44.696C151.325 44.3267 151.839 43.8189 152.202 43.1726C152.571 42.5263 152.756 41.7876 152.756 40.9567V27.1818ZM161.164 49V27.1818H169.9C171.505 27.1818 172.844 27.4197 173.916 27.8956C174.988 28.3714 175.795 29.032 176.334 29.8771C176.874 30.7152 177.144 31.6811 177.144 32.7749C177.144 33.6271 176.974 34.3764 176.633 35.0227C176.292 35.6619 175.823 36.1875 175.226 36.5994C174.637 37.0043 173.962 37.2919 173.202 37.4624V37.6754C174.033 37.7109 174.811 37.9453 175.535 38.3786C176.267 38.8118 176.86 39.419 177.314 40.2003C177.769 40.9744 177.996 41.8977 177.996 42.9702C177.996 44.1278 177.709 45.1612 177.133 46.0703C176.565 46.9723 175.724 47.6861 174.608 48.2116C173.493 48.7372 172.119 49 170.486 49H161.164ZM165.777 45.2287H169.537C170.823 45.2287 171.76 44.9837 172.35 44.4936C172.939 43.9964 173.234 43.3359 173.234 42.5121C173.234 41.9084 173.089 41.3757 172.797 40.9141C172.506 40.4524 172.091 40.0902 171.551 39.8274C171.018 39.5646 170.383 39.4332 169.644 39.4332H165.777V45.2287ZM165.777 36.3118H169.197C169.829 36.3118 170.39 36.2017 170.88 35.9815C171.377 35.7543 171.768 35.4347 172.052 35.0227C172.343 34.6108 172.488 34.1172 172.488 33.5419C172.488 32.7536 172.208 32.1179 171.647 31.6349C171.093 31.152 170.305 30.9105 169.282 30.9105H165.777V36.3118Z" fill="black"/>
</svg>
