<svg width="59" height="70" viewBox="0 0 59 70" fill="none" xmlns="http://www.w3.org/2000/svg">
<path d="M58.7716 7.11088V62.8047C58.7716 64.4442 58.0822 65.977 56.924 67.1799C56.5104 67.6262 56.0324 68.0142 55.5085 68.3634C54.0287 69.3336 52.1536 69.9156 50.1222 69.9156H8.64936C7.98756 69.9156 7.34415 69.8477 6.7283 69.7313C4.76129 69.3724 3.05164 68.4508 1.84753 67.1799C0.689377 65.977 0 64.4442 0 62.8047V7.11088C0 3.19165 3.86969 0 8.64936 0H50.1222C54.8927 0 58.7716 3.19165 58.7716 7.11088Z" fill="#0077B6"/>
<path d="M18.3925 58.2353C18.3925 59.8457 18.273 61.427 18.0341 62.9695C17.6664 65.3947 17.0138 67.723 16.1222 69.9154H8.64936C7.98756 69.9154 7.34415 69.8475 6.7283 69.7311C4.76129 69.3722 3.05164 68.4506 1.84753 67.1797C0.689377 65.9768 0 64.444 0 62.8046V30.4612C10.7359 34.6035 18.3925 45.4687 18.3925 58.2353Z" fill="#03045E"/>
<path d="M58.7715 31.2957V62.8047C58.7715 64.4442 58.0821 65.977 56.924 67.1799C56.5103 67.6262 56.0324 68.0142 55.5084 68.3635C54.0286 69.3336 52.1535 69.9156 50.1221 69.9156H45.2873C44.3681 67.7329 43.6971 65.3949 43.3111 62.9697C43.0353 61.3399 42.8975 59.6616 42.8975 57.9445C42.8975 46.2062 49.3776 36.0686 58.7715 31.2957Z" fill="#03045E"/>
<path d="M56.9239 67.1798C56.5103 67.626 56.0323 68.014 55.5084 68.3633C54.0285 69.3334 52.1534 69.9155 50.1221 69.9155H8.64925C7.98745 69.9155 7.34403 69.8475 6.72819 69.7311C4.76117 69.3722 3.05152 68.4506 1.84741 67.1798C1.89337 64.8515 4.21886 62.9695 7.06828 62.9695H51.703C54.5525 62.9695 56.878 64.8515 56.9239 67.1798Z" fill="#0012B6"/>
<mask id="mask0_536_906" style="mask-type:luminance" maskUnits="userSpaceOnUse" x="6" y="32" width="13" height="20">
<path d="M6.56274 32.77H18.4384V51.2506H6.56274V32.77Z" fill="white"/>
</mask>
<g mask="url(#mask0_536_906)">
<path d="M18.4384 42.0152C18.4384 44.3435 17.8869 46.468 16.9769 48.0881C15.8923 50.0283 14.2929 51.2603 12.5006 51.2603C9.21914 51.2603 6.56274 47.118 6.56274 42.0152C6.56274 36.9124 9.22833 32.7798 12.5006 32.7798C14.2929 32.7798 15.8923 34.0118 16.9769 35.952C17.8869 37.5721 18.4384 39.6966 18.4384 42.0152Z" fill="white"/>
<path d="M18.4385 42.0152C18.4385 44.3434 17.887 46.468 16.977 48.0881C16.3428 48.6313 15.6074 48.9418 14.8261 48.9418C12.3628 48.9418 10.3682 45.8374 10.3682 42.0152C10.3682 38.193 12.3628 35.0886 14.8261 35.0886C15.6074 35.0886 16.3428 35.3991 16.977 35.952C17.887 37.5721 18.4385 39.6966 18.4385 42.0152Z" fill="#03045E"/>
<path d="M10.9839 43.8487C11.8215 43.8487 12.5005 42.8324 12.5005 41.5786C12.5005 40.3249 11.8215 39.3086 10.9839 39.3086C10.1463 39.3086 9.46729 40.3249 9.46729 41.5786C9.46729 42.8324 10.1463 43.8487 10.9839 43.8487Z" fill="white"/>
</g>
<mask id="mask1_536_906" style="mask-type:luminance" maskUnits="userSpaceOnUse" x="43" y="32" width="12" height="20">
<path d="M54.9385 32.77H43.0537V51.2506H54.9385V32.77Z" fill="white"/>
</mask>
<g mask="url(#mask1_536_906)">
<path d="M43.0537 42.0152C43.0537 44.3435 43.6052 46.468 44.5152 48.0881C45.5998 50.0283 47.1992 51.2603 48.9915 51.2603C52.273 51.2603 54.9294 47.118 54.9294 42.0152C54.9294 36.9124 52.2638 32.7798 48.9915 32.7798C47.1992 32.7798 45.5998 34.0118 44.5152 35.952C43.6052 37.5721 43.0537 39.6966 43.0537 42.0152Z" fill="white"/>
<path d="M43.0537 42.0152C43.0537 44.3434 43.6052 46.468 44.5152 48.0881C45.1494 48.6313 45.8847 48.9418 46.666 48.9418C49.1294 48.9418 51.124 45.8374 51.124 42.0152C51.124 38.193 49.1294 35.0886 46.666 35.0886C45.8847 35.0886 45.1494 35.3991 44.5152 35.952C43.6052 37.5721 43.0537 39.6966 43.0537 42.0152Z" fill="#03045E"/>
<path d="M50.5174 43.8487C51.355 43.8487 52.034 42.8324 52.034 41.5786C52.034 40.3249 51.355 39.3086 50.5174 39.3086C49.6798 39.3086 49.0007 40.3249 49.0007 41.5786C49.0007 42.8324 49.6798 43.8487 50.5174 43.8487Z" fill="white"/>
</g>
<mask id="mask2_536_906" style="mask-type:luminance" maskUnits="userSpaceOnUse" x="14" y="65" width="11" height="4">
<path d="M14.3298 65.9575H24.7256V68.829H14.3298V65.9575Z" fill="white"/>
</mask>
<g mask="url(#mask2_536_906)">
<path d="M23.3652 65.9575H15.6902C14.9389 65.9575 14.3298 66.6003 14.3298 67.3933C14.3298 68.1862 14.9389 68.829 15.6902 68.829H23.3652C24.1166 68.829 24.7256 68.1862 24.7256 67.3933C24.7256 66.6003 24.1166 65.9575 23.3652 65.9575Z" fill="#0077B6"/>
</g>
<mask id="mask3_536_906" style="mask-type:luminance" maskUnits="userSpaceOnUse" x="36" y="65" width="12" height="4">
<path d="M47.3648 65.9575H36.969V68.829H47.3648V65.9575Z" fill="white"/>
</mask>
<g mask="url(#mask3_536_906)">
<path d="M38.3384 68.8291H46.0134C46.7647 68.8291 47.3738 68.1863 47.3738 67.3933C47.3738 66.6004 46.7647 65.9576 46.0134 65.9576H38.3384C37.5871 65.9576 36.978 66.6004 36.978 67.3933C36.978 68.1863 37.5871 68.8291 38.3384 68.8291Z" fill="#0077B6"/>
</g>
</svg>
